<?xml version="1.0" encoding="UTF-8"?>
<svg id="Capa_1" data-name="Capa 1" xmlns="http://www.w3.org/2000/svg" viewBox="0 0 582.26 576.37">
  <defs>
    <style>
      .cls-1 {
        fill: #143b65;
        stroke-width: 0px;
      }
    </style>
  </defs>
  <path class="cls-1" d="M158.22,529.77c-24.15-10.89-42.06-27.66-59.75-46.33-34.44-36.34-57.68-77.42-70.46-125.83-3.88-14.7-8.04-30.64-7.71-46.26.27-12.66,5.96-26.62,22.17-26.92,15.5-.29,27.09,7.84,38.57,16.03,23.12,16.5,41.28,37.84,56.95,61.37,22.39,33.61,39.71,69.6,51.4,108.36,3.26,10.81,10.29,31.97,7.42,46.15-2.02,9.99-10.01,17.09-20.45,17.65-5.41.29-10.94-.98-18.13-4.22Z"/>
  <circle class="cls-1" cx="172.07" cy="229.3" r="16.31"/>
  <path class="cls-1" d="M290.19,19.79c-120.47,0-222.62,78.39-258.26,186.93,3.69-3.88,18.06-18.84,24.81-23.96,24.65-18.72,51.73-29.37,82.84-29.17,24.68.16,49.37.31,74.05.44,16.03.08,29.59-5.77,40.86-17.12,8.36-8.41,16.46-17.11,25.23-25.06,10.27-9.32,21.87-15.58,36.2-17.77,21.78-3.33,57.28,22.58,61.45,46.18,1.65,9.32,1.99,18.91.38,28-5.84,32.98-16.49,64.26-34.96,92.6-19.72,30.26-43.82,55.44-77.51,70.19-4.89,2.14-9.53,5.07-13.89,8.18-20.41,14.58-29.64,38.58-23.41,62.32,5.44,20.7,15.57,39.09,30.06,54.88,10.97,11.95,23.47,21.04,37.85,29.79,39.13,23.82,49.18,51.1,52.13,58.17.61,1.46,2.78,7.81,2.81,12.18,120.92-27.55,211.16-135.73,211.16-264.99,0-150.1-121.68-271.79-271.79-271.79Z"/>
</svg>