<?xml version="1.0" encoding="UTF-8"?>
<svg id="Capa_1" data-name="Capa 1" xmlns="http://www.w3.org/2000/svg" viewBox="0 0 1366 333.87">
  <defs>
    <style>
      .cls-1 {
        fill: #143b65;
        stroke-width: 0px;
      }
    </style>
  </defs>
  <path class="cls-1" d="M635.07,168.03h-36.46l.02-40.11s-32.22,44.92-47.9,65.37c-3.32,3.95-.15,8.53,2.04,11.74,18.15,26.65,56.06,82.98,56.06,82.98l-68.33.06s-31.27-53.53-50.87-78.27v77.89h-57.46V36.63h57.29v151.85c19.41-21.74,50.5-70.43,50.5-70.43h94.66V46.95l60.3.05v70.7h39.57v50.16l-39.05.18v119.63h-59.42l-.94-119.63Z"/>
  <path class="cls-1" d="M1101.89,35.79h57.5l-.02,93.85s17.23-17.11,54.39-15.68c30.46,2.04,52.88,23.68,56.25,48.85,1.9,14.15,1.03,31.99,1.17,46.08.22,21.98,0,79.32,0,79.32h-59.49s0-64.05,0-96.7c0-10.11-6.4-24.85-23.08-25.34-23.28-.68-29.22,20.71-29.22,20.71v101.33h-56.07l-1.43-252.41Z"/>
  <path class="cls-1" d="M870.61,233.27s19.93,20.04,30.23,30.4c-6.1,7.71-14.47,13.69-23.98,17.76-35.18,14.83-76.47,12.69-105.05-7.18-19.24-13.38-31.42-31.53-35.88-55.67-6.95-37.63,11.76-74.6,38.96-90.48,12.62-7.37,25.16-11.43,39.94-13.32,16.76-2.15,33.46.05,48.56,6.19,26.06,10.6,42.77,29.59,48.88,57.66,3.15,14.49,2.87,24.03,1.8,43.79h-120.48c2.52,12,14.33,21.73,26.22,24.31,35.28,5.03,50.8-13.46,50.8-13.46ZM858.66,183.36s-2.78-26.64-31.74-26.64c-27.24,0-31.74,26.64-31.74,26.64h63.47Z"/>
  <path class="cls-1" d="M357.62,124h47.34l.35,99.95c1.33,37.89-19,53.82-37.73,60.76s-71.71,15.77-99.24-19.81c-9.48-12.26-13.28-22.93-21.84-41.96-20.68-45.99-47.87-48.61-62.23-49.64-6.72-.48-13.5-.08-20.78-.08v-50.11c38.73-1.01,59.09,1.18,84.29,19.9,16.4,12.18,29.07,27.73,37.89,45.94,11.43,23.61,16.09,47.95,32.32,52.71,6.96,2.04,15.8,2.78,23.25.06,18.21-6.64,16.07-25.29,16.02-33.56-.19-27.89.35-84.15.35-84.15Z"/>
  <path class="cls-1" d="M1081.68,139.11l-37.58,37.59s-24.8-24.78-54.17,2.61c-10.52,12.47-11.92,29.55-1.74,43.89,6.69,9.42,19.32,14.11,30.54,14.45,17.28-.31,27.03-10.64,27.03-10.64l35.69,38.51s-17.2,19.73-43.4,24.28c-35.49,6.15-64.99-4.43-80.57-15.98-18.37-13.62-30.62-31.24-34.91-54.88-5.43-29.84,3.25-54.91,22.44-76.44,12.9-14.46,30.44-23.13,49.55-26.59,19.7-3.57,39.36-2.7,58.53,4.75,15.39,6.26,28.6,18.46,28.6,18.46Z"/>
  <rect class="cls-1" x="81.26" y="30.48" width="61.4" height="254.83"/>
  <circle class="cls-1" cx="186.68" cy="256.47" r="31.59"/>
  <circle class="cls-1" cx="380.65" cy="78.47" r="31.59"/>
</svg>